<svg width="8" height="8" viewBox="0 0 8 8" fill="none" xmlns="http://www.w3.org/2000/svg">
<path d="M4 0C1.79086 0 0 1.79086 0 4C0 6.20914 1.79086 8 4 8C6.20914 8 8 6.20914 8 4C8 1.79086 6.20914 0 4 0ZM2.5625 1.58887C2.64491 1.58401 2.71941 1.63327 2.77588 1.7207L3.32275 2.75781C3.38033 2.8807 3.34761 3.01229 3.26172 3.10009L3.01123 3.35058C2.99577 3.37177 2.9856 3.39563 2.98535 3.42187C3.08141 3.7937 3.3728 4.13669 3.62989 4.37255C3.88697 4.60842 4.16329 4.92776 4.52197 5.00341C4.56631 5.01578 4.62062 5.02021 4.65235 4.99073L4.94336 4.69434C5.04381 4.6182 5.18913 4.5813 5.29639 4.64356H5.30127L6.28807 5.22608C6.43293 5.31687 6.44793 5.49237 6.34423 5.59913L5.66455 6.27344C5.56418 6.37637 5.43083 6.41098 5.30128 6.41113C4.72829 6.39397 4.18689 6.11274 3.7422 5.82373C3.01227 5.29271 2.34271 4.63409 1.92237 3.83838C1.76115 3.50471 1.57177 3.07898 1.58985 2.70655C1.59146 2.56645 1.62937 2.42919 1.72803 2.33888L2.40772 1.65919C2.46067 1.61414 2.51305 1.59179 2.5625 1.58887Z" fill="#7CCCED"/>
</svg>
