<svg width="8" height="8" viewBox="0 0 8 8" fill="none" xmlns="http://www.w3.org/2000/svg">
<path d="M3.18125 3.62768C3.25893 3.57143 3.29643 3.47857 3.29643 3.35089C3.29911 3.29018 3.28661 3.23036 3.25982 3.17589C3.23571 3.13214 3.2 3.09554 3.15625 3.06964C3.11089 3.04213 3.0605 3.02392 3.00804 3.01607C2.95089 3.00536 2.89286 3 2.83571 3.00089H2.20804V3.7125H2.8875C3.00446 3.71339 3.10357 3.68482 3.18125 3.62768ZM3.28661 4.27054C3.19911 4.20357 3.08214 4.17054 2.93661 4.17054H2.20625V5.00982H2.92232C2.98929 5.00982 3.05089 5.00357 3.11071 4.99107C3.16731 4.98 3.22127 4.95818 3.26964 4.92679C3.31518 4.89732 3.35179 4.85714 3.37946 4.80536C3.40625 4.75357 3.41964 4.6875 3.41964 4.60804C3.41964 4.45 3.375 4.33839 3.28661 4.27054ZM4 0C1.79107 0 0 1.79107 0 4C0 6.20893 1.79107 8 4 8C6.20893 8 8 6.20893 8 4C8 1.79107 6.20893 0 4 0ZM4.77232 2.56161H6.00804V2.8625H4.77232V2.56161ZM4 5.04286C3.9422 5.15257 3.85967 5.24733 3.75893 5.31964C3.65357 5.39286 3.53661 5.44643 3.4125 5.47768C3.28265 5.51247 3.14871 5.52959 3.01429 5.52857H1.53571V2.48304H2.97321C3.11875 2.48304 3.25089 2.49643 3.37143 2.52143C3.49107 2.54643 3.59286 2.58929 3.67857 2.64732C3.76339 2.70536 3.83036 2.78304 3.87768 2.87946C3.92411 2.975 3.94821 3.09464 3.94821 3.23661C3.94821 3.39018 3.91339 3.51696 3.84375 3.61964C3.77321 3.72232 3.67143 3.80536 3.53304 3.87054C3.72143 3.92411 3.85982 4.01964 3.95089 4.15357C4.04375 4.28929 4.08929 4.45179 4.08929 4.64286C4.08929 4.79821 4.05982 4.93125 4 5.04286ZM6.48929 4.57143H4.89643C4.89643 4.74464 4.95625 4.91071 5.04643 5C5.1375 5.08839 5.26786 5.13304 5.43839 5.13304C5.56161 5.13304 5.66607 5.10179 5.75536 5.04018C5.84375 4.97857 5.89732 4.91339 5.91696 4.84554H6.45089C6.36518 5.11071 6.23482 5.3 6.05804 5.41429C5.88304 5.52857 5.66875 5.58571 5.41964 5.58571C5.24554 5.58571 5.08929 5.55714 4.94911 5.50268C4.81429 5.45 4.69286 5.36964 4.59286 5.26607C4.49426 5.15971 4.41805 5.03461 4.36875 4.89821C4.31429 4.74732 4.2875 4.58839 4.28929 4.42857C4.28929 4.26339 4.31696 4.10982 4.37054 3.96696C4.47321 3.68929 4.68661 3.46696 4.95893 3.35179C5.10446 3.29107 5.26071 3.26071 5.41875 3.2625C5.60625 3.2625 5.76875 3.29821 5.90982 3.37143C6.04563 3.44134 6.16355 3.54154 6.25446 3.66429C6.34464 3.78661 6.40804 3.92589 6.44821 4.08304C6.48661 4.2375 6.5 4.4 6.48929 4.57143ZM5.4 3.71786C5.30357 3.71786 5.22232 3.73482 5.15982 3.76786C5.09732 3.80089 5.04554 3.84196 5.00625 3.88929C4.96884 3.93498 4.94118 3.98785 4.925 4.04464C4.91071 4.09196 4.90089 4.14018 4.89732 4.18929H5.88393C5.86964 4.03482 5.81607 3.92054 5.74464 3.84018C5.66964 3.76071 5.54911 3.71786 5.4 3.71786Z" fill="#7CCCED"/>
</svg>
