<svg width="9" height="9" viewBox="0 0 9 9" fill="none" xmlns="http://www.w3.org/2000/svg">
<path fill-rule="evenodd" clip-rule="evenodd" d="M4.04902 0C1.81194 0 0 1.85777 0 4.15143C0 5.98844 1.15903 7.54004 2.76852 8.09011C2.97097 8.12643 3.04689 8.00189 3.04689 7.89291C3.04689 7.79432 3.04183 7.46739 3.04183 7.11971C2.02451 7.31171 1.76132 6.86543 1.68034 6.63192C1.63479 6.51256 1.4374 6.14412 1.26532 6.04553C1.1236 5.96769 0.921152 5.77568 1.26026 5.77049C1.57912 5.7653 1.80687 6.07147 1.88279 6.19602C2.24721 6.82392 2.82925 6.64748 3.06207 6.53851C3.0975 6.26867 3.20379 6.08704 3.3202 5.98325C2.41929 5.87947 1.47789 5.52141 1.47789 3.93348C1.47789 3.48202 1.63479 3.10839 1.89292 2.81779C1.85243 2.714 1.71071 2.28848 1.93341 1.71766C1.93341 1.71766 2.27251 1.60868 3.04689 2.14318C3.37081 2.04977 3.71497 2.00307 4.05914 2.00307C4.40331 2.00307 4.74747 2.04977 5.0714 2.14318C5.84577 1.60349 6.18488 1.71766 6.18488 1.71766C6.40757 2.28848 6.26586 2.714 6.22537 2.81779C6.48349 3.10839 6.64039 3.47683 6.64039 3.93348C6.64039 5.5266 5.69393 5.87947 4.79303 5.98325C4.9398 6.11299 5.06633 6.36207 5.06633 6.75127C5.06633 7.30652 5.06127 7.7528 5.06127 7.89291C5.06127 8.00189 5.13719 8.13162 5.33964 8.09011C6.14343 7.81186 6.84189 7.2822 7.33671 6.57565C7.83153 5.86911 8.0978 5.02126 8.09804 4.15143C8.09804 1.85777 6.2861 0 4.04902 0Z" fill="#7CCCED"/>
</svg>
