<svg width="8" height="8" viewBox="0 0 8 8" fill="none" xmlns="http://www.w3.org/2000/svg">
<path d="M4 0C1.79083 0 0 1.79083 0 4C0 6.20917 1.79083 8 4 8C6.20917 8 8 6.20917 8 4C8 1.79083 6.20917 0 4 0ZM3.02083 5.65792H2.21083V3.05125H3.02083V5.65792ZM2.61083 2.73125C2.355 2.73125 2.18958 2.55 2.18958 2.32583C2.18958 2.09708 2.36 1.92125 2.62125 1.92125C2.8825 1.92125 3.0425 2.09708 3.0475 2.32583C3.0475 2.55 2.8825 2.73125 2.61083 2.73125ZM5.97917 5.65792H5.16917V4.21333C5.16917 3.87708 5.05167 3.64875 4.75875 3.64875C4.535 3.64875 4.40208 3.80333 4.34333 3.95208C4.32167 4.005 4.31625 4.08 4.31625 4.15458V5.6575H3.50583V3.8825C3.50583 3.55708 3.49542 3.285 3.48458 3.05083H4.18833L4.22542 3.41292H4.24167C4.34833 3.24292 4.60958 2.99208 5.04667 2.99208C5.57958 2.99208 5.97917 3.34917 5.97917 4.11667V5.65792Z" fill="#7CCCED"/>
</svg>
