<svg width="134" height="30" viewBox="0 0 134 30" fill="none" xmlns="http://www.w3.org/2000/svg">
<path d="M15.9087 18.3091C16.7232 17.8498 17.4949 17.3637 18.2195 16.857C18.6117 14.6659 18.8378 11.8968 18.4802 9.01525C18.3621 8.93682 18.2413 8.85839 18.1197 8.78048C17.3081 8.25964 16.4397 7.76549 15.5217 7.30442C14.8272 6.95547 14.1277 6.64443 13.4381 6.36129C13.0113 6.18561 12.5776 6.02296 12.1239 5.86956C11.1938 6.26481 10.2545 6.72519 9.31916 7.25251C8.48207 7.72446 7.69027 8.22526 6.94863 8.74731C6.72915 9.96451 6.59126 11.2632 6.55228 12.6141C6.51286 13.9738 6.57563 15.2854 6.7263 16.5187C8.73494 17.8316 10.9644 18.9256 13.0989 19.6951C14.0303 19.2985 14.9718 18.838 15.9087 18.3091Z" fill="white"/>
<path d="M6.90151 8.75364C7.16325 7.30082 7.54246 5.96503 8.01303 4.79741C4.29951 4.18355 1.33396 4.78195 0.34291 6.6505C-0.535258 8.3057 0.319256 10.6133 2.38016 12.9191C3.50439 11.4947 5.04381 10.0599 6.90151 8.75364Z" fill="white"/>
<path d="M22.7002 12.5544C21.8176 13.6734 20.6786 14.7976 19.3304 15.862C19.1891 17.8431 18.8546 19.5962 18.448 20.8511C21.5045 21.1161 23.8728 20.4526 24.7372 18.8227C25.6156 17.1675 24.7614 14.8599 22.7002 12.5544Z" fill="white"/>
<path d="M17.3294 4.32781C17.2095 4.01634 17.0796 3.70634 16.9401 3.39859C16.8591 3.24933 15.4825 0.0709963 12.9913 0.00120544C11.2964 -0.0461278 9.72193 1.38053 8.55322 3.71524C10.3609 4.21526 11.9936 4.7659 13.4375 5.36206C14.7896 4.87041 16.1029 4.525 17.3294 4.32781Z" fill="white"/>
<path d="M7.88232 21.2204C8.91634 23.8299 10.4707 25.4932 12.2507 25.5418C13.8919 25.5866 15.4208 24.2507 16.5773 22.0461C15.5028 21.765 13.7171 21.1617 11.7075 20.2173C10.3782 20.694 9.0885 21.0288 7.88232 21.2204Z" fill="white"/>
<path d="M2.33248 12.8804C0.473151 15.2824 -0.197193 17.6446 0.788896 19.2998C1.83693 21.0585 4.52864 21.6327 7.86882 21.1023C7.42613 19.9846 7.07888 18.6932 6.84972 17.2818C5.15113 16.061 3.55684 14.5971 2.33248 12.8804Z" fill="white"/>
<path d="M22.8519 12.5322C24.7373 10.1149 25.4211 7.73436 24.4288 6.06957C23.3904 4.32653 20.7389 3.74626 17.4417 4.25138C18.1221 5.56627 18.6083 6.99949 18.9348 8.47054C21.118 10.1773 22.3407 11.7764 22.8519 12.5322Z" fill="white"/>
<path d="M19.1189 9.45658C19.5106 11.6764 19.5694 13.9354 19.425 15.9563C20.7733 14.8919 21.9123 13.7676 22.7949 12.6487C22.6857 12.5264 22.5733 12.4041 22.4573 12.2822C21.6675 11.4644 20.5487 10.4673 19.1189 9.45658Z" fill="#1690C3"/>
<path d="M6.87598 17.2826C7.10514 18.6941 7.45238 19.9855 7.89508 21.1031C9.10125 20.9116 10.391 20.5768 11.7203 20.1001C10.1644 19.369 8.47592 18.4335 6.87598 17.2826Z" fill="#1690C3"/>
<path d="M15.8911 18.2455C14.9542 18.7744 14.0127 19.2349 13.0813 19.6315C13.5451 19.7957 13.7634 19.8711 14.1228 19.9832C15.1131 20.2916 16.077 20.5197 16.9923 20.6808C17.0214 20.6859 17.0507 20.6912 17.0793 20.6958C17.1036 20.6993 17.1271 20.7026 17.1515 20.7067C17.1968 20.5943 17.2414 20.4792 17.2854 20.3632C17.578 19.5535 17.9297 18.3123 18.2018 16.7935C17.4773 17.3001 16.7056 17.7862 15.8911 18.2455Z" fill="#1690C3"/>
<path d="M9.24651 7.18964C10.1819 6.66233 11.1212 6.20195 12.0513 5.80669C10.7908 5.38035 9.45303 5.00047 8.00881 4.7315C8.0018 4.72995 7.99425 4.72925 7.9875 4.72822C7.51693 5.89583 7.13772 7.23162 6.87598 8.68445C7.61762 8.1624 8.40942 7.6616 9.24651 7.18964Z" fill="#1690C3"/>
<path d="M4.5256 14.8709C4.59867 14.9309 4.67077 14.9904 4.74517 15.049C4.75272 15.0549 4.76071 15.0612 4.76799 15.067C5.36357 15.5367 5.99396 15.9864 6.64717 16.4127C6.4965 15.1794 6.43373 13.8678 6.47315 12.5081C6.51213 11.1572 6.65001 9.85851 6.86949 8.64132C5.0118 9.94757 3.47238 11.3823 2.34814 12.8067C2.96931 13.5002 3.69997 14.1952 4.5256 14.8709Z" fill="#1690C3"/>
<path d="M18.3257 7.98743C18.1148 6.73706 17.7866 5.47513 17.3086 4.23919C16.0821 4.43638 14.7688 4.7818 13.4167 5.27344C14.8087 5.84783 16.0254 6.46481 17.0527 7.11772C17.5063 7.40638 17.9293 7.69773 18.3257 7.98743Z" fill="#1690C3"/>
<path fill-rule="evenodd" clip-rule="evenodd" d="M30.8586 21.8378H31.544C33.8144 21.8378 34.5426 21.2132 34.5426 18.8186V6.99154H32.6149V18.8186C32.6149 20.2345 32.5078 20.5885 31.3298 20.5885H30.8586V21.8378ZM32.6149 5.38823H34.5426V3.09778H32.6149V5.38823ZM40.9079 18.4646C38.0379 18.4646 36.7099 16.8197 36.7099 13.4256V11.7807C36.7099 8.36582 38.0164 6.74168 40.8865 6.74168C43.7779 6.74168 44.9988 8.34499 44.9988 11.9264V12.7801H38.7018V13.0717C38.7018 15.5911 39.0874 17.132 40.9079 17.132C42.2144 17.132 43.0069 16.3616 43.0069 14.6958V14.5917H44.8274V14.6958C44.8274 17.1945 43.371 18.4646 40.9079 18.4646ZM38.7018 11.4475V11.5724H43.0069V11.4267C43.0069 9.26117 42.6428 8.05348 40.9079 8.05348C39.1088 8.05348 38.7018 9.36528 38.7018 11.4475ZM55.0052 18.1939H57.1042L52.1994 9.34446L56.6116 3.09778H54.5768L49.3508 10.5938V3.09778H47.3375V18.1939H49.3508V13.384L51 11.0311L55.0052 18.1939ZM58.3291 18.1939H60.2568V12.0722C60.2568 9.69844 61.0064 8.13677 62.5057 8.13677C63.8765 8.13677 64.0906 9.30282 64.0906 11.3226V18.1939H66.0183V10.6979C66.0183 7.97019 65.3115 6.74168 63.1911 6.74168C61.7132 6.74168 60.6851 7.61621 60.2568 8.80308V6.99154H58.3291V18.1939ZM72.148 17.132C73.9686 17.132 74.2684 15.5703 74.2684 12.9675V12.2388C74.2684 9.63597 73.9686 8.05348 72.148 8.05348C70.3275 8.05348 70.0062 9.63597 70.0062 12.2388V12.9675C70.0062 15.5703 70.3275 17.132 72.148 17.132ZM72.148 18.4646C69.2994 18.4646 68.0143 16.8613 68.0143 13.4048V11.8015C68.0143 8.34499 69.2994 6.74168 72.148 6.74168C74.9538 6.74168 76.2603 8.34499 76.2603 11.8015V13.4048C76.2603 16.8613 74.9538 18.4646 72.148 18.4646ZM79.263 18.1939H81.3405L83.0968 8.88637L84.8531 18.1939H86.9093L88.8155 6.99154H87.1235L85.7527 15.9659L83.9964 6.99154H82.1759L80.441 15.9659L79.0702 6.99154H77.3782L79.263 18.1939ZM90.5973 18.1939H92.525V3.09778H90.5973V18.1939ZM98.8903 18.4646C96.0203 18.4646 94.6923 16.8197 94.6923 13.4256V11.7807C94.6923 8.36582 95.9988 6.74168 98.8689 6.74168C101.76 6.74168 102.981 8.34499 102.981 11.9264V12.7801H96.6842V13.0717C96.6842 15.5911 97.0697 17.132 98.8903 17.132C100.197 17.132 100.989 16.3616 100.989 14.6958V14.5917H102.81V14.6958C102.81 17.1945 101.353 18.4646 98.8903 18.4646ZM96.6842 11.4475V11.5724H100.989V11.4267C100.989 9.26117 100.625 8.05348 98.8903 8.05348C97.0912 8.05348 96.6842 9.36528 96.6842 11.4475ZM111.06 8.78226V3.09778H112.988V18.1939H111.06V16.424C110.674 17.5693 109.582 18.4646 108.147 18.4646C105.855 18.4646 104.699 16.778 104.699 13.4256V11.7807C104.699 8.42828 105.855 6.74168 108.147 6.74168C109.582 6.74168 110.674 7.63704 111.06 8.78226ZM111.124 12.6136C111.124 9.74009 110.267 8.11595 108.704 8.11595C107.119 8.11595 106.691 9.55269 106.691 12.3012V12.9051C106.691 15.6536 107.119 17.0904 108.704 17.0904C110.267 17.0904 111.124 15.4662 111.124 12.6136ZM119.272 22.1085C116.659 22.1085 115.438 20.8175 115.438 18.8186V18.7353H117.302V18.8186C117.302 20.0055 117.88 20.7759 119.294 20.7759C120.857 20.7759 121.457 20.0679 121.457 17.9649V15.8618C121.071 17.0279 120.108 17.9232 118.673 17.9232C116.402 17.9232 115.053 16.195 115.053 12.9259V11.5933C115.053 8.24088 116.402 6.74168 118.673 6.74168C120.108 6.74168 121.071 7.65786 121.457 8.80308V6.99154H123.385V17.6109C123.385 20.5468 122.271 22.1085 119.272 22.1085ZM119.203 16.549C120.852 16.549 121.645 15.0081 121.645 12.4053C121.645 9.6568 120.852 8.11595 119.203 8.11595C117.597 8.11595 117.147 9.40693 117.147 12.0514V12.3637C117.147 14.9873 117.597 16.549 119.203 16.549ZM129.852 18.4646C126.982 18.4646 125.654 16.8197 125.654 13.4256V11.7807C125.654 8.36582 126.961 6.74168 129.831 6.74168C132.722 6.74168 133.943 8.34499 133.943 11.9264V12.7801H127.646V13.0717C127.646 15.5911 128.031 17.132 129.852 17.132C131.158 17.132 131.951 16.3616 131.951 14.6958V14.5917H133.771V14.6958C133.771 17.1945 132.315 18.4646 129.852 18.4646ZM127.646 11.4475V11.5724H131.951V11.4267C131.951 9.26117 131.587 8.05348 129.852 8.05348C128.053 8.05348 127.646 9.36528 127.646 11.4475Z" fill="white"/>
<path fill-rule="evenodd" clip-rule="evenodd" d="M41.4243 28.1934V21.6848H42.1723L44.7117 27.4213V21.6848H45.275V28.1934H44.527L41.9876 22.4569V28.1934H41.4243ZM47.7124 28.3101C46.789 28.3101 46.512 27.7265 46.512 26.5595V23.3636H47.0753V26.4069C47.0753 27.3405 47.2045 27.8702 47.8509 27.8702C48.5066 27.8702 48.9498 27.2238 48.9498 26.0388V23.3636H49.5131V28.1934H48.9683V27.3495C48.8113 27.8612 48.368 28.3101 47.7124 28.3101ZM50.7408 28.1934V23.3636H51.3041V24.3511C51.4426 23.8214 51.8028 23.3636 52.4861 23.3636H52.6708V23.9022H52.403C51.7012 23.9022 51.3041 24.36 51.3041 25.572V28.1934H50.7408ZM54.3602 28.1934C53.5292 28.1934 53.3445 27.9151 53.3445 27.0891V23.7765H52.6611V23.3636H53.3445V22.1875H53.9078V23.3636H54.7665V23.7765H53.9078V27.0083C53.9078 27.6637 53.9816 27.7804 54.5449 27.7804H54.7665V28.1934H54.3602ZM56.6407 28.3101C55.7173 28.3101 55.4402 27.7265 55.4402 26.5595V23.3636H56.0035V26.4069C56.0035 27.3405 56.1328 27.8702 56.7792 27.8702C57.4348 27.8702 57.8781 27.2238 57.8781 26.0388V23.3636H58.4414V28.1934H57.8965V27.3495C57.7396 27.8612 57.2963 28.3101 56.6407 28.3101ZM59.6691 28.1934V23.3636H60.2324V24.3511C60.3709 23.8214 60.731 23.3636 61.4144 23.3636H61.5991V23.9022H61.3313C60.6295 23.9022 60.2324 24.36 60.2324 25.572V28.1934H59.6691ZM62.1712 28.1934V23.3636H62.7345V28.1934H62.1712ZM62.1712 22.6005V21.6848H62.7345V22.6005H62.1712ZM63.9622 28.1934V23.3636H64.5255V24.2344C64.6917 23.7227 65.1442 23.2738 65.8091 23.2738C66.7325 23.2738 67.0187 23.8304 67.0187 25.0064V28.1934H66.4554V25.177C66.4554 24.2254 66.3169 23.7137 65.6521 23.7137C64.9872 23.7137 64.5255 24.36 64.5255 25.5451V28.1934H63.9622ZM69.6224 29.8811C68.4589 29.8811 68.108 29.2078 68.108 28.4986V28.4537H68.662V28.4986C68.662 29.0641 68.9021 29.4591 69.6224 29.4591C70.3796 29.4591 70.6751 29.0821 70.6751 28.1754V27.134C70.5181 27.6816 70.0564 28.0946 69.41 28.0946C68.4589 28.0946 67.9233 27.3136 67.9233 25.9041V25.3296C67.9233 23.9022 68.4589 23.2738 69.41 23.2738C70.0564 23.2738 70.5181 23.6957 70.6751 24.2344V23.3636H71.2476V28.0497C71.2476 29.1809 70.8413 29.8811 69.6224 29.8811ZM69.5116 27.6637C70.2318 27.6637 70.7028 27.0712 70.7028 25.6977C70.7028 24.2972 70.2318 23.7047 69.5116 23.7047C68.7544 23.7047 68.505 24.2972 68.505 25.554V25.6618C68.505 26.9186 68.7544 27.6637 69.5116 27.6637ZM74.3772 28.1934V21.6848H77.6369V22.1696H74.9682V24.5755H77.4153V25.0603H74.9682V27.7086H77.6369V28.1934H74.3772ZM77.8766 28.1934L79.2525 25.7066L77.9781 23.3636H78.5691L79.548 25.168L80.5452 23.3636H81.0808L79.8157 25.6618L81.2009 28.1934H80.6099L79.5202 26.2004L78.4214 28.1934H77.8766ZM83.2874 28.3101C82.1331 28.3101 81.6345 27.5919 81.6345 26.1196V25.4643C81.6345 24.001 82.1331 23.2738 83.2874 23.2738C84.2016 23.2738 84.8018 23.8573 84.8018 24.8897V24.9346H84.257V24.8897C84.257 24.1536 83.9523 23.6957 83.2874 23.6957C82.3825 23.6957 82.2162 24.4408 82.2162 25.5989V25.9939C82.2162 27.143 82.3825 27.8791 83.2874 27.8791C83.9523 27.8791 84.257 27.4393 84.257 26.6941V26.6493H84.8018V26.6941C84.8018 27.7265 84.2016 28.3101 83.2874 28.3101ZM87.3501 28.3101C86.1865 28.3101 85.6417 27.5829 85.6417 26.1286V25.4553C85.6417 24.001 86.1588 23.2738 87.3131 23.2738C88.4582 23.2738 88.9383 23.965 88.9383 25.4194V25.7964H86.2235V25.9939C86.2235 27.143 86.4543 27.8791 87.3501 27.8791C88.0149 27.8791 88.3658 27.4572 88.3658 26.7301V26.6852H88.9106V26.7301C88.9106 27.7624 88.3196 28.3101 87.3501 28.3101ZM86.2235 25.3745V25.4014H88.3566V25.3565C88.3566 24.3152 88.1811 23.6957 87.3224 23.6957C86.4266 23.6957 86.2235 24.387 86.2235 25.3745ZM89.8983 28.1934V21.6848H90.4616V28.1934H89.8983ZM91.6893 28.1934V21.6848H92.2526V28.1934H91.6893ZM94.9671 28.3101C93.8036 28.3101 93.2587 27.5829 93.2587 26.1286V25.4553C93.2587 24.001 93.7759 23.2738 94.9301 23.2738C96.0752 23.2738 96.5554 23.965 96.5554 25.4194V25.7964H93.8405V25.9939C93.8405 27.143 94.0714 27.8791 94.9671 27.8791C95.6319 27.8791 95.9828 27.4572 95.9828 26.7301V26.6852H96.5277V26.7301C96.5277 27.7624 95.9367 28.3101 94.9671 28.3101ZM93.8405 25.3745V25.4014H95.9736V25.3565C95.9736 24.3152 95.7981 23.6957 94.9394 23.6957C94.0436 23.6957 93.8405 24.387 93.8405 25.3745ZM97.5153 28.1934V23.3636H98.0786V24.2344C98.2448 23.7227 98.6973 23.2738 99.3622 23.2738C100.286 23.2738 100.572 23.8304 100.572 25.0064V28.1934H100.009V25.177C100.009 24.2254 99.87 23.7137 99.2052 23.7137C98.5403 23.7137 98.0786 24.36 98.0786 25.5451V28.1934H97.5153ZM103.129 28.3101C101.975 28.3101 101.476 27.5919 101.476 26.1196V25.4643C101.476 24.001 101.975 23.2738 103.129 23.2738C104.043 23.2738 104.644 23.8573 104.644 24.8897V24.9346H104.099V24.8897C104.099 24.1536 103.794 23.6957 103.129 23.6957C102.224 23.6957 102.058 24.4408 102.058 25.5989V25.9939C102.058 27.143 102.224 27.8791 103.129 27.8791C103.794 27.8791 104.099 27.4393 104.099 26.6941V26.6493H104.644V26.6941C104.644 27.7265 104.043 28.3101 103.129 28.3101ZM107.192 28.3101C106.028 28.3101 105.484 27.5829 105.484 26.1286V25.4553C105.484 24.001 106.001 23.2738 107.155 23.2738C108.3 23.2738 108.78 23.965 108.78 25.4194V25.7964H106.065V25.9939C106.065 27.143 106.296 27.8791 107.192 27.8791C107.857 27.8791 108.208 27.4572 108.208 26.7301V26.6852H108.753V26.7301C108.753 27.7624 108.162 28.3101 107.192 28.3101ZM106.065 25.3745V25.4014H108.198V25.3565C108.198 24.3152 108.023 23.6957 107.164 23.6957C106.269 23.6957 106.065 24.387 106.065 25.3745Z" fill="white"/>
</svg>
